<?xml version="1.0" encoding="UTF-8" standalone="no"?>
<!DOCTYPE svg PUBLIC "-//W3C//DTD SVG 1.1//EN"
 "http://www.w3.org/Graphics/SVG/1.1/DTD/svg11.dtd">
<!-- Generated by graphviz version 12.2.0 (20241103.1931)
 -->
<!-- Title: G Pages: 1 -->
<svg width="105pt" height="67pt"
 viewBox="0.00 0.00 104.95 66.95" xmlns="http://www.w3.org/2000/svg" xmlns:xlink="http://www.w3.org/1999/xlink">
<g id="graph0" class="graph" transform="scale(1 1) rotate(0) translate(21.6 45.35)">
<title>G</title>
<polygon fill="#111111" stroke="none" points="-21.6,21.6 -21.6,-45.35 83.35,-45.35 83.35,21.6 -21.6,21.6"/>
<!-- index.js -->
<g id="node1" class="node">
<title>index.js</title>
<path fill="none" stroke="#cfffac" d="M53.83,-23.75C53.83,-23.75 7.92,-23.75 7.92,-23.75 3.96,-23.75 0,-19.79 0,-15.83 0,-15.83 0,-7.92 0,-7.92 0,-3.96 3.96,0 7.92,0 7.92,0 53.83,0 53.83,0 57.79,0 61.75,-3.96 61.75,-7.92 61.75,-7.92 61.75,-15.83 61.75,-15.83 61.75,-19.79 57.79,-23.75 53.83,-23.75"/>
<text text-anchor="middle" x="30.88" y="-6.45" font-family="Arial" font-size="14.00" fill="#cfffac">index.js</text>
</g>
</g>
</svg>
